<svg enable-background="new 0 0 48 48" viewBox="0 0 48 48" xmlns="http://www.w3.org/2000/svg"><path d="m24.1 0c-13 0-23.7 10.7-23.7 23.8 0 4 1 7.9 3 11.5l-3.1 11.2c-.2.7.2 1.2.8 1.5h.6l11.5-3.1c3.4 1.7 7.1 2.7 10.9 2.7 13 0 23.7-10.7 23.7-23.8 0-6.4-2.5-12.4-6.9-16.8-4.4-4.5-10.4-7-16.8-7z" fill="#d6d6d6"/><path d="m24.1 1.2c6 0 11.7 2.4 16 6.6 4.2 4.2 6.6 10 6.6 16 0 12.5-10.1 22.6-22.6 22.6-3.7 0-7.5-.9-10.8-2.7l-11.9 3.1 3.2-11.7c-1.9-3.4-3.1-7.4-3.1-11.3 0-12.4 10.1-22.6 22.6-22.6z" fill="#fff"/><path d="m37.3 10.7c-3.5-3.5-8.3-5.5-13.3-5.5-10.3 0-18.7 8.4-18.7 18.8 0 3.5 1 7 2.8 10l.5.7-1.9 6.9 7.1-1.8.7.5c2.8 1.7 6.2 2.6 9.5 2.6 10.3-.1 18.7-8.5 18.7-18.8.1-5.1-1.9-9.9-5.4-13.4z" fill="#40c351"/><path d="m18.3 14.5c-.5-.9-.9-.9-1.2-1h-1.1c-.3 0-1 .1-1.5.7-.6.6-1.9 1.9-1.9 4.7s2 5.4 2.3 5.8c.2.3 3.9 6.2 9.6 8.5 4.8 1.9 5.8 1.5 6.8 1.4s3.3-1.4 3.9-2.7c.5-1.4.5-2.5.3-2.7-.1-.2-.6-.3-1.1-.7-.6-.2-3.3-1.7-3.9-1.8-.6-.2-.9-.2-1.2.2-.3.6-1.5 1.8-1.8 2.3-.3.3-.7.5-1.2.1-.6-.2-2.4-.9-4.5-2.8-1.7-1.5-2.8-3.3-3.2-3.9-.3-.6 0-.9.2-1.1s.6-.7.8-1l.6-.9s.1-.7 0-1c-.2-.2-1.3-3-1.9-4.1z" fill="#fff"/></svg>